<?xml version="1.0" standalone="no"?>
<!DOCTYPE svg PUBLIC "-//W3C//DTD SVG 20010904//EN"
 "http://www.w3.org/TR/2001/REC-SVG-20010904/DTD/svg10.dtd">
<svg version="1.0" xmlns="http://www.w3.org/2000/svg"
 width="480.000000pt" height="374.000000pt" viewBox="0 0 480.000000 374.000000"
 preserveAspectRatio="xMidYMid meet">
<metadata>
Created by potrace 1.16, written by Peter Selinger 2001-2019
</metadata>
<g transform="translate(0.000000,374.000000) scale(0.100000,-0.100000)"
fill="#000000" stroke="none">
<path d="M0 1870 l0 -1870 2400 0 2400 0 0 1870 0 1870 -2400 0 -2400 0 0
-1870z m2188 956 c27 -14 53 -30 59 -38 6 -7 32 -61 58 -120 43 -99 51 -110
93 -134 l47 -28 67 37 c37 20 76 37 86 37 11 0 48 -32 85 -74 50 -55 88 -86
152 -122 82 -46 89 -53 200 -195 64 -82 127 -156 141 -166 14 -10 35 -26 47
-36 21 -17 20 -17 -18 0 -55 23 -73 40 -186 175 -107 126 -129 146 -229 201
-37 20 -91 62 -123 96 -32 34 -61 61 -65 61 -9 -1 -102 -136 -102 -149 0 -5
18 -11 40 -13 22 -2 41 -7 43 -13 1 -5 -83 -53 -188 -106 -104 -53 -191 -102
-193 -108 -2 -7 10 -11 32 -11 20 0 36 -5 36 -11 0 -24 -111 -137 -155 -158
-43 -20 -59 -21 -405 -21 -198 0 -360 3 -360 8 0 4 55 59 121 122 110 104 135
135 260 320 114 170 160 228 266 338 70 73 132 132 136 132 4 0 29 -11 55 -24z
m620 -98 c10 -18 32 -40 49 -48 18 -8 33 -17 33 -20 0 -3 -15 -12 -33 -20 -20
-9 -39 -30 -51 -55 l-20 -39 -12 31 c-14 33 -58 73 -80 73 -8 0 -14 5 -14 10
0 6 6 10 14 10 23 0 73 48 80 76 8 30 11 28 34 -18z m631 -847 c9 -6 -22 -11
-85 -16 -54 -3 -124 -10 -154 -14 l-55 -9 80 -1 c117 -2 74 -19 -71 -27 -148
-8 -183 -23 -59 -25 133 -2 59 -15 -138 -25 -165 -7 -184 -21 -33 -23 44 -1
77 -4 73 -7 -3 -4 -86 -12 -184 -19 -153 -10 -166 -13 -93 -15 47 -1 99 -5
115 -9 27 -6 24 -8 -25 -14 -30 -4 -104 -7 -165 -8 -60 0 -148 -4 -195 -8 -79
-7 -73 -8 75 -10 196 -3 242 -15 91 -24 -227 -14 -696 -4 -651 14 11 4 94 9
185 10 154 2 159 3 75 10 -49 4 -144 8 -210 9 -66 0 -138 5 -160 9 l-40 8 55
6 c30 4 80 8 110 10 30 1 -12 6 -95 10 -182 11 -249 24 -130 27 152 4 133 17
-36 24 -198 9 -280 23 -149 25 119 2 81 17 -64 25 -148 9 -187 25 -66 27 l85
2 -55 8 c-30 5 -100 11 -154 15 -63 4 -94 9 -85 15 18 11 2190 11 2208 0z
m-1215 -592 c46 -13 96 -59 96 -88 0 -32 -61 -29 -94 4 -31 31 -74 32 -110 4
-22 -17 -26 -28 -26 -74 0 -72 23 -100 79 -99 31 1 47 8 66 28 48 52 106 19
73 -42 -18 -34 -65 -52 -138 -52 -114 0 -159 38 -167 144 -8 100 27 157 110
176 47 11 67 11 111 -1z m-1474 -96 c19 -51 39 -91 44 -90 8 3 18 24 60 140
17 45 19 47 57 47 21 0 39 -4 39 -10 0 -16 -102 -284 -113 -298 -6 -8 -26 -12
-50 -10 l-40 3 -58 155 c-33 85 -59 156 -59 158 0 2 19 2 42 0 l43 -3 35 -92z
m398 -43 c4 -175 2 -182 -46 -178 l-37 3 -3 158 -3 158 43 -3 43 -3 3 -135z
m360 108 l-3 -33 -87 -3 c-86 -3 -88 -3 -88 -27 0 -23 4 -24 68 -27 l67 -3 0
-30 c0 -30 -1 -30 -65 -35 -61 -5 -65 -6 -65 -30 0 -25 2 -25 88 -28 l87 -3 0
-35 0 -35 -127 3 -128 3 -3 158 -3 157 131 0 131 0 -3 -32z m390 0 c-3 -32 -5
-33 -50 -36 l-47 -3 -3 -122 -3 -122 -40 0 -40 0 -3 122 -3 122 -42 3 c-39 3
-42 5 -45 36 l-3 32 141 0 141 0 -3 -32z m612 -28 l0 -60 70 0 69 0 3 58 3 57
43 3 43 3 -3 -158 -3 -158 -40 0 -40 0 -3 63 -3 63 -67 -3 -67 -3 -5 -60 -5
-60 -35 0 -35 0 -3 158 -3 157 41 0 40 0 0 -60z m600 -95 c32 -82 56 -153 53
-157 -2 -5 -20 -8 -38 -8 -28 0 -37 6 -50 30 -14 28 -20 30 -70 30 -49 0 -55
-2 -67 -27 -10 -22 -21 -29 -51 -31 -45 -4 -46 0 -9 98 16 41 41 108 57 148
l27 73 45 -3 46 -3 57 -150z m416 122 c34 -40 33 -104 -3 -147 l-27 -32 27
-48 c15 -26 24 -50 20 -54 -3 -3 -21 -6 -39 -6 -29 0 -38 7 -69 55 -47 75 -73
75 -77 3 l-3 -53 -40 0 -40 0 -3 158 -3 159 117 -4 c113 -3 116 -4 140 -31z
m276 -67 c22 -52 43 -99 48 -103 4 -5 27 39 51 97 l44 106 53 0 53 0 -3 -157
-3 -158 -37 -3 -38 -3 0 59 c0 32 -3 62 -7 66 -4 4 -21 -21 -38 -56 -29 -61
-31 -63 -73 -66 -42 -3 -42 -3 -63 45 -47 107 -43 105 -49 28 l-5 -70 -35 0
-35 0 -3 158 -3 158 52 -3 52 -3 39 -95z"/>
<path d="M2195 2675 c-13 -33 -16 -58 -10 -100 l7 -56 -106 -108 c-59 -59
-103 -110 -99 -114 3 -4 24 -7 45 -7 44 0 50 -16 17 -46 -33 -30 -106 -119
-89 -109 8 4 42 27 75 50 33 23 89 52 125 64 36 12 75 27 87 34 22 13 143 159
143 173 0 5 -19 21 -43 36 -37 24 -46 38 -82 127 -22 56 -43 101 -47 101 -3 0
-14 -20 -23 -45z"/>
</g>
</svg>
