<?xml version="1.0" standalone="no"?>
<!DOCTYPE svg PUBLIC "-//W3C//DTD SVG 20010904//EN"
 "http://www.w3.org/TR/2001/REC-SVG-20010904/DTD/svg10.dtd">
<svg version="1.0" xmlns="http://www.w3.org/2000/svg"
 width="349.000000pt" height="247.000000pt" viewBox="0 0 349.000000 247.000000"
 preserveAspectRatio="xMidYMid meet">
<metadata>
Created by potrace 1.16, written by Peter Selinger 2001-2019
</metadata>
<g transform="translate(0.000000,247.000000) scale(0.100000,-0.100000)"
fill="#000000" stroke="none">
<path d="M0 1235 l0 -1235 1745 0 1745 0 0 1235 0 1235 -1745 0 -1745 0 0
-1235z m1499 894 c25 -15 43 -41 74 -109 35 -77 45 -91 77 -105 37 -17 39 -17
82 9 25 14 51 26 59 26 9 0 43 -28 76 -63 35 -36 83 -73 112 -87 43 -20 66
-43 147 -147 53 -68 109 -130 125 -138 32 -17 39 -28 12 -18 -39 14 -68 40
-155 142 -72 84 -104 113 -154 140 -35 18 -84 56 -110 83 -25 27 -47 48 -48
46 -1 -2 -19 -27 -40 -55 -21 -29 -35 -57 -31 -63 3 -5 20 -10 36 -10 17 0 28
-4 24 -10 -3 -5 -71 -42 -150 -81 -138 -68 -163 -89 -109 -89 13 0 24 -3 24
-7 -1 -18 -93 -105 -125 -119 -27 -11 -93 -14 -307 -14 l-273 0 111 113 c79
79 136 149 194 237 84 126 271 338 300 339 8 1 30 -8 49 -20z m896 -711 c-44
-5 -102 -12 -130 -17 l-50 -8 70 -3 70 -3 -65 -7 c-36 -4 -105 -9 -155 -11
l-90 -3 105 -5 105 -6 -65 -7 c-36 -4 -117 -12 -180 -16 l-115 -9 125 -3 c122
-3 123 -3 50 -10 -41 -4 -124 -9 -185 -10 l-110 -3 109 -8 c60 -5 111 -10 113
-13 10 -10 -416 -18 -604 -11 -114 5 -203 10 -197 12 5 2 59 7 120 12 l109 8
-110 3 c-60 1 -144 6 -185 10 -75 7 -74 7 45 10 l120 3 -110 9 c-60 4 -141 12
-180 17 l-70 8 110 3 110 3 -110 7 c-216 14 -207 13 -130 19 l70 6 -55 7 c-30
4 -89 11 -130 16 -48 6 234 9 800 9 560 0 846 -3 795 -9z m-1532 -399 c36 -10
51 -29 22 -29 -21 0 -58 -61 -93 -155 -17 -44 -47 -124 -67 -178 -64 -171
-122 -247 -186 -247 -44 0 -86 48 -95 107 -15 104 4 240 50 354 6 13 -4 18
-50 28 -85 17 -138 14 -165 -8 -21 -17 -22 -22 -11 -40 18 -31 -4 -26 -24 5
-22 32 -11 68 29 98 40 29 98 27 174 -8 l62 -28 31 26 c37 30 47 32 78 10 16
-11 22 -24 20 -42 -3 -24 -8 -27 -50 -30 -46 -3 -47 -4 -62 -50 -51 -160 -40
-352 20 -352 50 0 85 70 154 307 48 165 82 243 107 243 10 0 35 -5 56 -11z
m1106 -63 c25 -23 29 -111 7 -141 -13 -19 -14 -18 -9 6 4 20 -2 31 -22 48 -51
40 -156 21 -241 -44 -107 -82 -143 -272 -63 -339 60 -51 155 -42 217 20 19 19
41 34 49 32 22 -4 -63 -97 -104 -114 -80 -34 -180 -9 -241 60 -122 140 -7 407
206 477 73 24 172 21 201 -5z m228 -52 c3 -8 -4 -42 -16 -76 -27 -79 -26 -88
3 -88 47 0 54 -30 30 -134 -11 -45 18 -28 36 22 8 23 20 42 27 42 19 0 -12
-91 -38 -113 -61 -49 -96 6 -68 106 6 22 8 42 4 45 -13 14 -35 -28 -47 -90
-11 -61 -15 -68 -36 -68 -12 0 -25 6 -28 14 -11 29 46 289 75 344 12 22 49 20
58 -4z m-795 -55 c15 -8 18 -17 14 -35 -4 -16 -2 -24 6 -24 8 -1 4 -8 -8 -18
-11 -10 -30 -46 -42 -82 -37 -109 -23 -154 18 -57 25 60 38 47 20 -19 -27 -97
-110 -97 -110 -1 0 23 7 66 14 95 12 45 12 52 0 52 -21 0 -17 21 6 27 11 3 24
20 30 39 12 37 20 40 52 23z m1268 -99 c0 -5 20 -10 45 -10 40 0 47 -3 56 -27
7 -20 6 -38 -7 -74 -17 -48 -14 -73 7 -52 6 6 16 28 24 49 14 42 31 45 26 4
-8 -66 -71 -119 -106 -90 -17 14 -17 59 1 133 6 24 4 27 -19 27 -22 0 -26 -6
-32 -40 -4 -26 -12 -40 -22 -40 -10 0 -13 5 -8 18 14 35 17 80 6 86 -18 11
-13 26 9 26 11 0 20 -4 20 -10z m-1717 -48 c-3 -15 -10 -37 -14 -50 -11 -30
-11 -72 -1 -72 10 0 32 45 32 64 0 8 7 19 15 26 19 15 20 2 4 -53 -19 -69 -68
-97 -105 -60 -13 14 -15 29 -11 78 3 33 10 73 16 87 9 25 13 26 41 17 26 -10
29 -14 23 -37z m2058 34 c30 5 40 3 45 -10 5 -14 8 -14 27 -1 27 19 61 19 77
0 12 -15 11 -44 -6 -120 l-7 -30 22 19 c11 11 21 27 21 36 0 9 7 25 15 36 14
18 14 18 15 -9 0 -38 -27 -95 -52 -108 -26 -14 -65 -4 -72 19 -3 10 1 44 9 76
9 33 13 61 10 64 -14 15 -54 -44 -66 -99 -11 -50 -16 -59 -35 -59 -34 0 -36
12 -18 85 9 36 13 69 9 73 -13 14 -45 -40 -57 -99 -10 -50 -15 -59 -34 -59
-31 0 -34 17 -19 103 16 94 19 99 51 87 14 -6 43 -7 65 -4z m-1819 -22 c16
-35 -6 -75 -50 -90 -29 -9 -31 -12 -19 -28 24 -32 65 -13 88 40 24 53 46 50
24 -4 -17 -41 -67 -92 -91 -92 -21 0 -56 20 -71 39 -16 20 -16 76 -2 104 30
59 100 77 121 31z m1344 12 c3 -7 -2 -40 -10 -74 -20 -86 9 -97 31 -12 10 39
30 39 25 0 -5 -40 -36 -84 -66 -95 -25 -8 -31 -7 -44 13 -14 21 -16 21 -33 6
-24 -21 -58 -14 -82 18 -26 35 -16 90 22 129 25 25 36 28 90 28 40 -1 64 -5
67 -13z"/>
<path d="M1491 2019 c-7 -23 -10 -57 -6 -78 6 -35 3 -39 -74 -115 -44 -44 -78
-83 -75 -88 3 -4 18 -8 35 -8 36 0 37 -9 3 -41 -14 -13 -36 -37 -47 -54 -22
-30 -21 -30 30 8 28 21 82 49 120 63 61 23 73 32 117 90 27 35 47 66 45 67 -2
2 -18 13 -35 25 -23 15 -39 42 -60 97 -16 41 -31 75 -35 75 -3 0 -11 -18 -18
-41z"/>
</g>
</svg>
